<?xml version="1.0" encoding="UTF-8" standalone="no"?>
<!DOCTYPE svg PUBLIC "-//W3C//DTD SVG 1.1//EN" "http://www.w3.org/Graphics/SVG/1.1/DTD/svg11.dtd">
<svg width="100%" height="100%" viewBox="0 0 1000 230" version="1.1" xmlns="http://www.w3.org/2000/svg" xmlns:xlink="http://www.w3.org/1999/xlink" xml:space="preserve" xmlns:serif="http://www.serif.com/" style="fill-rule:evenodd;clip-rule:evenodd;stroke-linecap:round;stroke-linejoin:round;stroke-miterlimit:1.5;">
    <g transform="matrix(0.954545,0,0,0.954545,-39.2622,-43.4158)">
        <g transform="matrix(0.136278,0,0,0.136278,35.7548,29.9851)">
            <g>
                <path d="M708.021,1742.91C708.021,1742.91 700.838,1746.01 686.938,1750.25C680.947,1752.07 673.868,1753.9 665.527,1756.05C660.27,1757.4 654.598,1758.82 648.45,1760.33C640.607,1762.25 632.063,1764.36 622.701,1766.08C605.742,1769.19 586.239,1771.5 564.194,1771.94C529.653,1772.81 500.226,1774.51 478.682,1771.42C461.069,1768.9 449.471,1763.32 448.499,1746.94C447.239,1727.13 462.2,1713.52 480.649,1703.11C487.655,1699.16 495.268,1695.81 502.914,1692.65C510.861,1689.37 518.847,1686.39 526.509,1683.68C535.363,1680.55 543.574,1677.69 550.834,1675.38C565.704,1670.66 575.735,1667.95 575.735,1667.95C577.156,1667.8 578.19,1666.53 578.044,1665.11C577.898,1663.69 576.625,1662.65 575.204,1662.8C575.204,1662.8 564.504,1662.25 548.523,1663.43C540.609,1664.02 531.583,1665.03 521.968,1666.84C513.413,1668.45 504.547,1670.76 495.818,1673.7C487.026,1676.66 478.489,1680.48 470.542,1684.74C444.03,1698.95 425.169,1720.02 426.547,1748.17C427.753,1770.95 439.402,1783.45 459.452,1789.93C482.569,1797.41 519.533,1795.32 564.774,1794.11C602.741,1792.74 633.77,1787.08 657.109,1779.14C662.182,1777.42 666.843,1775.54 671.132,1773.55C679.044,1769.88 685.588,1766.19 691.044,1762.67C704.886,1753.73 711.049,1747.11 711.049,1747.11C712.208,1746.28 712.47,1744.66 711.635,1743.5C710.799,1742.34 709.18,1742.08 708.021,1742.91Z"/>
                <path d="M474.686,1783.34C474.683,1783.59 474.96,1784.07 475.387,1784.44C475.875,1784.86 476.475,1785.06 477.073,1785.06L477.077,1785.07L477.075,1785.06L477.083,1785.06L477.077,1785.07L477.088,1785.06C477.461,1785.06 477.832,1784.98 478.174,1784.82C479.165,1784.62 481.006,1784.28 484.365,1783.74C485.97,1783.48 486.918,1783.49 488.938,1782.69C490.033,1782.26 490.997,1781.71 492.087,1780.91C494.045,1779.46 495.908,1777.48 497.981,1775.47C502.714,1770.87 508.042,1765.6 513.018,1760.73C516.506,1757.31 520.148,1754.45 522.548,1751.51C523.308,1750.57 523.406,1749.69 523.824,1748.72C524.306,1747.61 523.92,1747.24 524.202,1746.21C524.996,1743.32 523.817,1743.18 524.789,1741.35C526.185,1741.05 527.072,1739.67 526.769,1738.27C526.465,1736.88 525.086,1735.99 523.69,1736.29C521.667,1734.7 521.605,1735.38 518.16,1734.23C517.274,1733.94 517.003,1734.15 515.986,1734.02C514.352,1733.8 513.483,1733.81 511.621,1734.26C509.75,1734.71 508.111,1736.14 506.253,1737.42C502.864,1739.75 499.418,1742.87 495.936,1746.16C491.871,1750 487.839,1754.2 484.278,1758.28C481.629,1761.31 479.127,1764.16 477.271,1766.9C476.686,1767.77 476.176,1768.56 475.823,1769.43C475.51,1770.21 475.385,1770.74 475.281,1771.49C474.565,1776.65 475.023,1777.95 475.063,1779.8C475.077,1780.41 475.308,1780.66 475.108,1780.68C472.523,1780.91 473.388,1782.22 474.686,1783.34Z"/>
                <path d="M435.174,1762.53C435.055,1762.69 435.429,1763.27 436.01,1763.66C436.452,1763.95 436.952,1764.1 437.446,1764.09L437.448,1764.1L437.447,1764.09L437.449,1764.09L437.448,1764.1L437.45,1764.09C437.824,1764.09 438.194,1764.01 438.533,1763.85C440.074,1763.48 443.38,1762.55 449.253,1760.41C449.997,1760.14 450.616,1759.94 451.362,1759.49C452.231,1758.97 453.066,1758.37 453.94,1757.65C456.741,1755.36 459.894,1752.64 463.542,1749.96C467.978,1746.69 473.1,1743.48 478.832,1740.82C483.287,1738.74 488.105,1737.13 493.278,1735.8C494.164,1735.57 495.008,1735.3 495.864,1734.93C496.312,1734.74 496.558,1734.47 496.963,1734.19C498.435,1733.19 498.911,1732.46 500.302,1731.28C502.2,1729.66 502.153,1729.13 504.066,1727.43C505.493,1727.51 506.715,1726.41 506.793,1724.99C506.872,1723.56 505.777,1722.34 504.351,1722.26C502.366,1720.11 502.027,1719.82 499.826,1718.01C498.587,1716.99 497.926,1716.76 496.529,1716.03C495.545,1715.52 494.768,1715.35 493.699,1715.11C492.763,1714.9 491.838,1714.98 490.891,1715C486.44,1715.09 482.194,1716.15 478.132,1717.32C471.75,1719.15 465.905,1721.94 460.664,1725.12C454.975,1728.56 449.931,1732.43 445.835,1736.42C442.582,1739.59 439.565,1742.51 437.739,1745.61C437.091,1746.7 436.674,1747.63 436.358,1748.73C435.933,1750.2 435.748,1751.02 435.614,1752.31C435.182,1756.47 435.223,1757.8 435.28,1759.25C435.298,1759.71 435.443,1759.95 435.294,1759.97C432.975,1760.23 433.896,1761.48 435.174,1762.53Z"/>
            </g>
            <g transform="matrix(-1,0,0,1,1996.1,0)">
                <path d="M711.049,1747.11C711.049,1747.11 704.886,1753.73 691.044,1762.67C685.588,1766.19 679.044,1769.88 671.132,1773.55C666.843,1775.54 662.182,1777.42 657.109,1779.14C633.77,1787.08 602.741,1792.74 564.774,1794.11C519.533,1795.32 482.569,1797.41 459.452,1789.93C439.402,1783.45 427.753,1770.95 426.547,1748.17C425.169,1720.02 444.03,1698.95 470.542,1684.74C478.489,1680.48 487.025,1676.66 495.818,1673.7C504.547,1670.76 513.413,1668.45 521.967,1666.84C531.583,1665.03 540.609,1664.02 548.523,1663.43C564.504,1662.25 575.204,1662.8 575.204,1662.8C576.625,1662.65 577.898,1663.69 578.044,1665.11C578.19,1666.53 577.156,1667.8 575.735,1667.95C575.735,1667.95 565.704,1670.66 550.834,1675.38C543.574,1677.69 535.363,1680.55 526.509,1683.68C518.847,1686.39 510.861,1689.37 502.914,1692.65C495.268,1695.81 487.655,1699.16 480.649,1703.11C462.2,1713.52 447.239,1727.13 448.499,1746.94C449.471,1763.32 461.069,1768.9 478.682,1771.42C500.226,1774.51 529.653,1772.81 564.194,1771.94C586.239,1771.5 605.742,1769.19 622.701,1766.08C632.063,1764.36 640.606,1762.25 648.449,1760.33C654.598,1758.82 660.27,1757.4 665.527,1756.05C673.868,1753.9 680.947,1752.07 686.938,1750.25C700.838,1746.01 708.021,1742.91 708.021,1742.91C709.18,1742.08 710.799,1742.34 711.635,1743.5C712.47,1744.66 712.208,1746.28 711.049,1747.11Z"/>
                <path d="M475.115,1780.79C475.089,1780.48 475.072,1780.15 475.063,1779.8C475.018,1777.95 474.565,1776.65 475.281,1771.49C475.385,1770.74 475.51,1770.21 475.823,1769.43C476.176,1768.56 476.686,1767.77 477.271,1766.91C479.127,1764.16 481.629,1761.31 484.278,1758.28C487.839,1754.2 491.871,1750 495.936,1746.16C499.417,1742.87 502.864,1739.75 506.253,1737.42C508.111,1736.14 509.75,1734.71 511.621,1734.26C513.483,1733.81 514.352,1733.8 515.986,1734.02C517.003,1734.15 517.274,1733.94 518.16,1734.23C521.605,1735.38 521.667,1734.7 523.69,1736.29C525.086,1735.99 526.465,1736.88 526.769,1738.27C527.072,1739.67 526.185,1741.05 524.789,1741.35C523.817,1743.18 524.996,1743.32 524.202,1746.21C523.92,1747.24 524.306,1747.61 523.824,1748.72C523.406,1749.69 523.308,1750.57 522.548,1751.51C520.147,1754.45 516.506,1757.31 513.018,1760.73C508.042,1765.6 502.714,1770.87 497.981,1775.47C495.908,1777.48 494.045,1779.46 492.087,1780.91C490.997,1781.71 490.033,1782.26 488.938,1782.69C486.918,1783.49 485.97,1783.48 484.365,1783.74C477.977,1784.76 477.077,1785.07 477.077,1785.07C478.105,1785.25 476.469,1785.37 475.387,1784.44C474.306,1783.51 474.184,1781.87 475.115,1780.79Z"/>
                <path d="M435.355,1760.18C435.319,1759.89 435.294,1759.58 435.28,1759.25C435.217,1757.8 435.182,1756.47 435.614,1752.31C435.748,1751.02 435.933,1750.2 436.359,1748.73C436.674,1747.63 437.091,1746.7 437.739,1745.61C439.565,1742.51 442.582,1739.59 445.835,1736.42C449.931,1732.43 454.975,1728.56 460.664,1725.12C465.905,1721.94 471.75,1719.15 478.132,1717.32C482.194,1716.15 486.44,1715.09 490.892,1715C491.838,1714.98 492.763,1714.9 493.699,1715.11C494.768,1715.35 495.545,1715.52 496.529,1716.03C497.927,1716.76 498.587,1716.99 499.826,1718.01C502.027,1719.82 502.366,1720.11 504.351,1722.26C505.777,1722.34 506.872,1723.56 506.793,1724.99C506.715,1726.41 505.493,1727.51 504.066,1727.43C502.153,1729.13 502.2,1729.66 500.302,1731.28C498.911,1732.46 498.435,1733.19 496.963,1734.19C496.558,1734.47 496.312,1734.74 495.864,1734.93C495.008,1735.3 494.164,1735.57 493.278,1735.8C488.105,1737.13 483.287,1738.74 478.832,1740.82C473.1,1743.48 467.978,1746.69 463.542,1749.96C459.894,1752.64 456.741,1755.36 453.94,1757.65C453.066,1758.37 452.231,1758.97 451.362,1759.49C450.616,1759.94 449.997,1760.14 449.253,1760.41C440.497,1763.6 437.448,1764.1 437.448,1764.1C438.807,1764.13 437.199,1764.45 436.01,1763.66C434.822,1762.87 434.502,1761.26 435.295,1760.07L435.355,1760.18Z"/>
            </g>
            <g>
                <g transform="matrix(1.20453,0.0853647,0.0853647,1.03563,-318.984,-133.135)">
                    <path d="M947.383,1468.16C947.3,1467.9 947.201,1467.63 947.086,1467.35C946.475,1465.85 946.465,1464.75 944.118,1461C943.785,1460.47 943.534,1460.14 943.037,1459.71C942.492,1459.23 941.868,1458.91 941.157,1458.57C938.914,1457.5 936.177,1456.71 933.279,1455.85C929.377,1454.7 925.107,1453.7 920.962,1452.97C917.381,1452.35 913.901,1451.82 910.763,1451.84C909.001,1451.86 907.358,1451.63 905.907,1452.28C904.35,1452.98 903.783,1453.4 902.69,1454.48C901.972,1455.19 901.715,1455.1 901.175,1455.85C899.383,1458.32 899.099,1457.6 898.346,1459.62C898.072,1460.35 897.851,1460.11 897.696,1460.76C896.581,1461.46 896.028,1463.01 896.463,1464.21C896.898,1465.41 898.157,1465.82 899.272,1465.13C900.354,1465.69 899.27,1466.42 900.566,1467.92C901.391,1468.87 900.882,1469.61 902.065,1470.69C902.645,1471.22 902.975,1471.83 903.812,1472.15C906.443,1473.15 909.991,1473.41 913.651,1474.15C918.797,1475.19 924.376,1476.3 929.317,1477.18C931.474,1477.57 933.472,1478.05 935.354,1478.05C936.415,1478.05 937.274,1477.92 938.2,1477.63C939.97,1477.07 940.557,1476.55 941.812,1475.81C945.948,1473.36 946.388,1473.11 946.388,1473.11C946.857,1473.37 948.123,1472.54 948.575,1471.18C949.026,1469.83 948.493,1468.47 947.384,1468.15L947.383,1468.16Z"/>
                </g>
                <path d="M824.033,1387.95C825.507,1384.67 829.845,1382.82 835.533,1380.39C839.298,1378.79 843.608,1377.69 848.463,1376.39C851.276,1375.63 854.202,1375.01 857.251,1374.27C864.182,1372.59 871.668,1371.12 879.376,1370.64C890.108,1369.96 901.183,1370.93 911.137,1374.78C926.709,1380.8 939.006,1394.24 942.394,1418.77C947.464,1453.34 937.902,1471.88 921.87,1479.92C914.684,1483.52 906.525,1484.99 898.344,1485.37C894.618,1485.54 890.923,1485.61 887.251,1485.46C880.543,1485.19 874.176,1484.63 868.286,1483.33C860.874,1481.69 854.582,1479.87 850.104,1476.84C849.083,1475.84 847.443,1475.86 846.444,1476.88C845.445,1477.9 845.462,1479.54 846.483,1480.54C850.127,1485.7 855.974,1490.72 863.63,1495.21C869.801,1498.82 876.94,1501.63 884.671,1503.52C890.602,1504.96 896.83,1505.49 903.024,1505.42C912.789,1505.3 922.437,1503.07 931.116,1499C953.71,1488.39 970.913,1463.89 964.514,1415.68C958.183,1371.23 930.195,1353.17 899.819,1349.49C886.508,1347.88 872.614,1348.87 860.207,1352.28C854.537,1353.83 849.141,1355.71 844.38,1358.21C838.081,1361.52 832.829,1365.2 828.786,1369.24C822.318,1375.71 818.774,1381.71 818.953,1386.95C818.679,1388.35 819.594,1389.71 820.996,1389.99C822.398,1390.27 823.759,1389.35 824.033,1387.95Z"/>
                <g transform="matrix(1.05737,0.021721,0.021721,1.00822,-85.7698,-32.4724)">
                    <path d="M955.982,1439.99L955.956,1439.4C955.878,1438.34 956.069,1437.7 955.495,1434.67C955.093,1432.55 954.936,1430.83 953.464,1428.12C952.534,1426.42 950.93,1425.03 949.352,1423.41C947.31,1421.31 944.918,1419.25 942.415,1417.17C936.134,1411.97 929.043,1406.77 922.446,1403.69C916.667,1400.98 911.107,1398.71 906.942,1399.93C904.997,1400.51 903.637,1400.47 902.406,1401.84C901.607,1402.72 900.891,1402.51 900.341,1403.51C899.879,1404.35 899.163,1404.22 898.875,1405.12C898.619,1405.91 898.084,1405.82 897.988,1406.65C897.661,1409.48 896.179,1409.59 897.354,1412.61C896.753,1413.91 897.249,1415.43 898.46,1416C899.672,1416.58 901.143,1416 901.743,1414.7C902.413,1414.48 902.431,1414.85 903.069,1414.75C903.631,1414.66 903.525,1415.2 904.061,1415.2C904.548,1415.21 904.799,1415.42 904.716,1415.91C904.652,1416.29 905.393,1416.7 905.044,1416.63C904.798,1416.57 905.42,1417.3 905.176,1417.22C904.753,1417.09 905.086,1418.77 905.291,1418.32C905.5,1417.86 904.983,1419.43 905.474,1419.64C905.839,1419.8 906.048,1420.26 906.483,1420.41C908.138,1421.01 909.933,1422 911.931,1423.11C914.976,1424.79 918.226,1426.92 921.536,1429.15C927.358,1433.08 933.188,1437.48 938.005,1440.99C938.733,1441.52 939.416,1442.05 940.154,1442.43C941.056,1442.9 941.831,1443.16 942.717,1443.38C944.741,1443.88 945.764,1443.83 947.337,1443.92C953.129,1444.25 954.251,1444.43 954.251,1444.43C953.581,1444.73 955.133,1444.63 956.07,1443.57C957.007,1442.5 956.976,1440.88 956.002,1439.94L955.982,1439.99Z"/>
                </g>
            </g>
            <g transform="matrix(-1,0,0,1,1995.34,0)">
                <g transform="matrix(1.20453,0.0853647,0.0853647,1.03563,-318.984,-133.135)">
                    <path d="M948.266,1469.99C948.768,1469.62 948.835,1470.41 948.575,1471.18C948.209,1472.28 947.307,1473.04 946.388,1473.12C946.373,1473.12 945.881,1473.4 941.812,1475.81C940.557,1476.55 939.97,1477.07 938.2,1477.63C937.274,1477.92 936.415,1478.05 935.354,1478.05C933.472,1478.05 931.474,1477.57 929.317,1477.18C924.376,1476.3 918.797,1475.19 913.651,1474.15C909.991,1473.41 906.443,1473.15 903.812,1472.15C902.975,1471.83 902.645,1471.22 902.064,1470.69C900.882,1469.61 901.391,1468.87 900.566,1467.92C899.27,1466.42 900.354,1465.69 899.272,1465.13C898.157,1465.82 896.898,1465.41 896.463,1464.21C896.028,1463.01 896.581,1461.46 897.696,1460.76C897.851,1460.11 898.073,1460.35 898.346,1459.62C899.099,1457.6 899.383,1458.32 901.176,1455.85C901.715,1455.1 901.972,1455.19 902.691,1454.48C903.783,1453.4 904.35,1452.98 905.908,1452.28C907.358,1451.63 909.001,1451.86 910.763,1451.84C913.901,1451.82 917.381,1452.35 920.962,1452.97C925.107,1453.7 929.377,1454.7 933.279,1455.85C936.177,1456.71 938.913,1457.5 941.157,1458.57C941.868,1458.91 942.492,1459.23 943.037,1459.71C943.534,1460.14 943.785,1460.47 944.118,1461C946.464,1464.75 946.471,1465.85 947.086,1467.35C947.294,1467.85 947.197,1468.15 947.355,1468.06C949.589,1466.73 949.155,1468.27 948.266,1469.99Z"/>
                </g>
                <path d="M818.953,1386.95C818.774,1381.71 822.318,1375.71 828.786,1369.24C832.829,1365.2 838.081,1361.52 844.38,1358.21C849.141,1355.71 854.537,1353.83 860.207,1352.28C872.614,1348.87 886.508,1347.88 899.819,1349.49C930.195,1353.17 958.183,1371.23 964.514,1415.68C970.913,1463.89 953.71,1488.39 931.116,1499C922.437,1503.07 912.789,1505.3 903.024,1505.42C896.83,1505.49 890.602,1504.96 884.671,1503.52C876.94,1501.63 869.801,1498.82 863.63,1495.21C855.974,1490.72 850.127,1485.7 846.483,1480.54C845.462,1479.54 845.445,1477.9 846.444,1476.88C847.443,1475.86 849.083,1475.84 850.104,1476.84C854.582,1479.87 860.874,1481.69 868.286,1483.33C874.176,1484.63 880.543,1485.19 887.251,1485.46C890.923,1485.61 894.618,1485.54 898.344,1485.37C906.525,1484.99 914.684,1483.52 921.87,1479.92C937.902,1471.88 947.464,1453.34 942.394,1418.77C939.006,1394.24 926.709,1380.8 911.137,1374.78C901.183,1370.93 890.108,1369.96 879.376,1370.64C871.668,1371.12 864.182,1372.59 857.251,1374.27C854.202,1375.01 851.276,1375.63 848.463,1376.39C843.608,1377.69 839.298,1378.79 835.533,1380.39C829.845,1382.82 825.507,1384.67 824.033,1387.95C823.759,1389.35 822.398,1390.27 820.996,1389.99C819.594,1389.71 818.679,1388.35 818.953,1386.95Z"/>
                <g transform="matrix(1.05737,0.021721,0.021721,1.00822,-85.7698,-32.4724)">
                    <path d="M956.548,1442.28C956.752,1442.4 956.526,1443.05 956.07,1443.57C955.577,1444.12 954.915,1444.42 954.255,1444.43L954.251,1444.43L954.254,1444.43L954.243,1444.43L954.251,1444.43L954.227,1444.43C954.033,1444.43 953.84,1444.41 953.651,1444.37C952.841,1444.28 951.047,1444.13 947.337,1443.92C945.764,1443.83 944.741,1443.88 942.717,1443.38C941.831,1443.16 941.056,1442.9 940.154,1442.43C939.416,1442.05 938.733,1441.52 938.005,1440.99C933.188,1437.48 927.327,1433.13 921.536,1429.15C916.31,1425.57 911.284,1422.22 907.087,1420.67C906.523,1420.47 905.853,1419.4 905.629,1419.89C905.179,1420.89 904.395,1417.24 905.21,1417.47C905.356,1417.51 905.013,1417.07 905.156,1417.11C905.537,1417.22 904.502,1416.15 904.889,1416.22C905.609,1416.34 903.903,1415.1 903.903,1415.1C903.903,1415.1 903.644,1414.77 903.309,1414.82C902.555,1414.91 902.543,1414.43 901.743,1414.7C901.143,1416 899.672,1416.58 898.46,1416C897.249,1415.43 896.753,1413.91 897.354,1412.61C896.179,1409.59 897.66,1409.48 897.988,1406.65C898.084,1405.82 898.619,1405.91 898.875,1405.12C899.163,1404.22 899.878,1404.35 900.341,1403.51C900.891,1402.51 901.607,1402.72 902.406,1401.84C903.637,1400.47 904.996,1400.51 906.942,1399.93C911.106,1398.71 916.667,1400.98 922.446,1403.69C929.043,1406.77 936.134,1411.97 942.415,1417.17C944.918,1419.25 947.31,1421.31 949.352,1423.41C950.93,1425.03 952.534,1426.42 953.464,1428.12C954.936,1430.83 955.093,1432.55 955.495,1434.67C956.069,1437.7 955.874,1438.34 955.956,1439.4C955.981,1439.72 955.898,1439.89 955.998,1439.88C958.373,1439.68 957.69,1441.01 956.548,1442.28Z"/>
                </g>
            </g>
            <path d="M814.09,1002.77C814.09,1002.77 821.71,1013.15 836.317,1025.1C840.947,1028.89 846.185,1032.44 852.157,1035.92C855.803,1038.05 859.67,1039.95 863.815,1041.6C883.014,1049.28 906.216,1051.95 929.989,1047.08C961.112,1040.17 980.681,1024.89 993.111,1008.09C997.31,1002.41 1000.68,996.536 1003.37,990.701C1009.65,1001.47 1017.54,1012.45 1027.26,1021.86C1042.56,1036.67 1062.14,1047.73 1086.55,1049.38C1100.31,1050.16 1113.16,1049.57 1124.8,1047.19C1133.63,1045.39 1141.77,1042.91 1149.1,1039.74C1159.95,1035.03 1168.95,1029.6 1176.25,1024.09C1191.41,1012.64 1198.64,1002.67 1198.64,1002.67C1200.11,1001.3 1200.19,998.982 1198.82,997.507C1197.44,996.032 1195.13,995.952 1193.65,997.328C1193.65,997.328 1184.15,1002.85 1167.91,1008.67C1160.39,1011.37 1151.59,1013.7 1141.47,1015.85C1134.91,1017.24 1127.91,1018.32 1120.4,1019.15C1110.67,1020.23 1100.14,1020.78 1088.84,1019.69C1067.53,1017.85 1052.14,1005.12 1040.85,990.734C1020.95,965.398 1013.47,934.014 1013.47,934.014C1011.54,925.994 1003.77,920.81 995.623,922.114C987.479,923.418 981.71,930.771 982.381,938.992C982.381,938.992 984.532,966.435 967.744,989.454C959.032,1001.4 945.116,1012 923.157,1017.15C909.141,1020.57 895.451,1019.62 882.906,1017.18C878.63,1016.35 874.487,1015.44 870.457,1014.44C866.015,1013.35 861.776,1012.45 857.703,1011.27C852.026,1009.62 846.932,1008.06 842.208,1006.41C827.818,1001.39 818.847,997.226 818.847,997.226C817.316,995.913 815.007,996.09 813.695,997.621C812.382,999.152 812.559,1001.46 814.09,1002.77Z"/>
            <path d="M998.12,937.707L926.573,831.615C926.573,831.615 962.417,805.677 998.12,810.26C1033.82,814.844 1063.04,824.531 1063.04,824.531L998.12,937.707Z" style="fill:none;stroke:black;stroke-width:26.67px;"/>
            <g id="Ebene1">
                <path d="M406.052,587.323C406.052,587.323 568.167,185.583 1000,190.646C1431.83,195.708 1590.19,585 1590.19,585" style="fill:none;stroke:black;stroke-width:26.67px;"/>
                <path d="M1522.63,1334.09C1522.63,1334.09 1542.43,1331.91 1572.96,1323.99C1586.06,1320.59 1601,1316.12 1617.14,1310.23C1626.39,1306.85 1635.98,1302.97 1645.76,1298.5C1681.56,1282.13 1720.04,1258.99 1754.97,1229.25C1816.7,1176.69 1866.49,1102.26 1868.97,1000.3C1871.24,889.709 1841.76,805.75 1801.2,743.097C1782.76,714.62 1762.17,690.387 1740.98,670.369C1730.74,660.704 1720.4,651.99 1710.1,644.284C1690,629.243 1670.45,617.693 1653.17,608.926C1616.91,590.53 1591.13,584.428 1591.13,584.428C1589.54,583.907 1587.81,584.78 1587.29,586.378C1586.77,587.976 1587.64,589.696 1589.24,590.218C1589.24,590.218 1612.7,600.21 1645.46,622.106C1660.9,632.426 1678.25,645.431 1696.39,661.251C1705.57,669.264 1714.96,677.946 1724.36,687.41C1743.7,706.876 1763.02,729.645 1780.12,756.604C1817.86,816.077 1845.31,895.343 1842.66,999.698C1841.03,1073.03 1812.3,1130.59 1772.9,1175.48C1748.94,1202.77 1721.01,1225.35 1692.76,1244.08C1671.9,1257.9 1650.75,1269.38 1631,1279.48C1622.12,1284.02 1613.61,1288.38 1605.41,1292.38C1590.97,1299.42 1577.77,1305.45 1566.18,1310.45C1538.92,1322.21 1521.33,1328.14 1521.33,1328.14C1519.68,1328.5 1518.64,1330.12 1519.01,1331.77C1519.37,1333.41 1520.99,1334.45 1522.63,1334.09Z"/>
                <path d="M405.21,584.397C405.21,584.397 385.693,587.87 356.48,599.62C344.025,604.63 329.963,611.169 314.964,619.636C306.446,624.445 297.692,629.89 288.884,636.113C257.976,657.95 226.042,688.219 198.442,727.435C157.293,785.9 126.517,865.228 126.146,971.004C126.175,1085.41 170.996,1165.84 228.659,1221.7C252.915,1245.2 279.357,1264.5 305.84,1279.77C318.161,1286.88 330.453,1293.17 342.549,1298.52C365.656,1308.76 387.706,1316.07 406.949,1321.32C446.52,1332.11 473.744,1334.12 473.744,1334.12C475.404,1334.38 476.965,1333.25 477.227,1331.59C477.489,1329.93 476.354,1328.37 474.693,1328.11C474.693,1328.11 448.966,1321.75 411.867,1306.74C394.024,1299.52 373.699,1290.23 352.171,1278.76C341.044,1272.84 329.59,1266.41 318.056,1259.3C293.59,1244.2 268.792,1226.08 246.181,1203.78C193.234,1151.56 152.006,1077.03 152.479,971.059C152.548,871.734 181.368,797.356 219.472,742.085C245.018,705.03 275.001,676.923 302.952,655.007C310.998,648.699 318.758,642.791 326.293,637.385C339.7,627.767 352.117,619.682 363.159,613.089C389.287,597.488 406.894,590.249 406.894,590.249C408.509,589.784 409.443,588.096 408.978,586.481C408.514,584.866 406.825,583.932 405.21,584.397Z"/>
                <g transform="matrix(-1,0,0,1,1996.58,2.17985)">
                    <path d="M1394.79,1331.98C1394.79,1331.98 1384.78,1333.83 1368.22,1336.95C1362.92,1337.95 1357.11,1339 1350.65,1340.17C1345.15,1341.16 1339.37,1342.29 1333.2,1343.32C1329.44,1343.95 1325.57,1344.52 1321.6,1345.09C1288.42,1349.86 1249.32,1357.35 1217.53,1372.68C1183.04,1389.31 1156.99,1414.8 1161.98,1456.49C1165.55,1487.76 1180.05,1510.45 1198.61,1527.03C1209.89,1537.11 1222.7,1544.83 1235.4,1551.23C1241.33,1554.22 1247.19,1556.96 1252.93,1559.49C1264,1564.38 1274.37,1568.44 1283.6,1571.58C1302.64,1578.05 1315.78,1580.99 1315.78,1580.99C1317.46,1581.08 1318.75,1582.52 1318.65,1584.19C1318.57,1585.87 1317.13,1587.16 1315.45,1587.07C1315.45,1587.07 1303.94,1588.24 1286.21,1586.98C1277.61,1586.37 1267.77,1585.15 1257.11,1582.84C1247.93,1580.85 1238.33,1577.98 1228.7,1574.14C1219.59,1570.51 1210.6,1565.78 1201.89,1560.34C1169.66,1540.21 1142.27,1508.39 1136.06,1459.6C1129.52,1405.31 1161.16,1370.37 1206.25,1349.06C1240.62,1332.81 1282.79,1324.15 1318.74,1320.85C1322.91,1320.47 1326.98,1320.17 1330.95,1320.07C1337.43,1319.89 1343.53,1320.04 1349.32,1320.3C1356.06,1320.59 1362.12,1321.01 1367.64,1321.62C1384.76,1323.52 1394.96,1325.89 1394.96,1325.89C1396.64,1325.94 1397.96,1327.34 1397.92,1329.02C1397.87,1330.7 1396.47,1332.02 1394.79,1331.98Z"/>
                </g>
                <g transform="matrix(1,0,0,1,4.14013,2.17985)">
                    <path d="M1394.96,1325.89C1394.96,1325.89 1384.76,1323.52 1367.64,1321.62C1362.12,1321.01 1356.06,1320.59 1349.32,1320.3C1343.53,1320.04 1337.43,1319.89 1330.95,1320.07C1326.98,1320.17 1322.91,1320.47 1318.74,1320.85C1282.79,1324.15 1240.62,1332.81 1206.25,1349.06C1161.16,1370.37 1129.52,1405.31 1136.06,1459.6C1142.27,1508.39 1169.66,1540.21 1201.89,1560.34C1210.6,1565.78 1219.59,1570.51 1228.7,1574.14C1238.33,1577.98 1247.93,1580.85 1257.11,1582.84C1267.77,1585.15 1277.61,1586.37 1286.21,1586.98C1303.94,1588.24 1315.45,1587.07 1315.45,1587.07C1317.13,1587.16 1318.57,1585.87 1318.65,1584.19C1318.75,1582.52 1317.46,1581.08 1315.78,1580.99C1315.78,1580.99 1302.64,1578.05 1283.6,1571.58C1274.37,1568.44 1264,1564.38 1252.93,1559.49C1247.19,1556.96 1241.33,1554.22 1235.4,1551.23C1222.7,1544.83 1209.89,1537.11 1198.61,1527.03C1180.05,1510.45 1165.55,1487.76 1161.98,1456.49C1156.99,1414.8 1183.04,1389.31 1217.53,1372.68C1249.32,1357.35 1288.42,1349.86 1321.6,1345.09C1325.57,1344.52 1329.44,1343.95 1333.2,1343.32C1339.37,1342.29 1345.15,1341.16 1350.65,1340.17C1357.11,1339 1362.92,1337.95 1368.22,1336.95C1384.78,1333.83 1394.79,1331.98 1394.79,1331.98C1396.47,1332.02 1397.87,1330.7 1397.92,1329.02C1397.96,1327.34 1396.64,1325.94 1394.96,1325.89Z"/>
                </g>
                <path d="M1637.09,1287.73C1637.09,1287.73 1630.6,1322.52 1611.91,1373.87C1603.06,1398.18 1591.38,1426.08 1576.51,1455.95C1565.34,1478.39 1552.44,1501.95 1537.21,1525.71C1506.62,1573.42 1466.85,1622.07 1414.26,1664.36C1320.87,1739.45 1187.76,1794.74 998.323,1791.7C814.686,1789.14 687.315,1737.37 598.896,1668.42C556.657,1635.48 523.473,1598.57 496.98,1561.47C484.107,1543.45 472.794,1525.41 462.812,1507.7C443.332,1473.14 429.053,1439.88 418.705,1410.58C397.294,1349.95 392.458,1306.66 392.458,1306.66C392.355,1304.98 390.909,1303.7 389.232,1303.81C387.554,1303.91 386.276,1305.35 386.379,1307.03C386.379,1307.03 386.955,1351.72 404.407,1415.07C412.922,1445.98 425.432,1481.27 443.911,1517.79C456.5,1542.67 471.972,1568.03 490.616,1592.97C515.461,1626.21 546.156,1658.57 583.5,1688.04C674.943,1760.22 807.133,1814.73 997.917,1817.97C1195.06,1820.9 1333.54,1762.89 1430.42,1684.39C1485.2,1640.01 1526.94,1589.18 1557.98,1538.77C1573.32,1513.86 1586.15,1489.1 1596.52,1465.28C1610.2,1433.83 1619.82,1404.2 1626.68,1378.52C1641.07,1324.66 1643.14,1288.46 1643.14,1288.46C1643.34,1286.79 1642.15,1285.27 1640.48,1285.07C1638.81,1284.87 1637.3,1286.06 1637.09,1287.73Z"/>
                <path d="M674.016,507.44C721.684,507.44 760.385,565.081 760.385,636.078C760.385,707.075 721.684,764.716 674.016,764.716C626.347,764.716 587.646,707.075 587.646,636.078C587.646,565.081 626.347,507.44 674.016,507.44ZM700.435,568.562C715.016,568.562 726.854,583.689 726.854,602.32C726.854,620.952 715.016,636.078 700.435,636.078C685.854,636.078 674.016,620.952 674.016,602.32C674.016,583.689 685.854,568.562 700.435,568.562Z"/>
                <g transform="matrix(1,0,0,1,656.469,0)">
                    <path d="M674.016,507.44C721.684,507.44 760.385,565.081 760.385,636.078C760.385,707.075 721.684,764.716 674.016,764.716C626.347,764.716 587.646,707.075 587.646,636.078C587.646,565.081 626.347,507.44 674.016,507.44ZM700.435,568.562C715.016,568.562 726.854,583.689 726.854,602.32C726.854,620.952 715.016,636.078 700.435,636.078C685.854,636.078 674.016,620.952 674.016,602.32C674.016,583.689 685.854,568.562 700.435,568.562Z"/>
                </g>
                <g>
                    <path d="M640.062,293.094C640.062,293.094 600.389,296.041 556.385,254.354C460.25,163.281 356.692,304.554 366.481,388.961C375.271,464.752 448.484,507.44 448.484,507.44" style="fill:none;stroke:black;stroke-width:26.67px;"/>
                    <path d="M587.646,342.261C587.646,342.261 565.135,336.135 534.99,318.719C504.844,301.302 464.913,243.844 406.052,335.403C345.014,430.348 448.484,507.44 448.484,507.44" style="fill:none;stroke:black;stroke-width:26.67px;"/>
                </g>
                <g transform="matrix(-1,0,0,1,1995.36,-0.123837)">
                    <path d="M640.062,293.094C640.062,293.094 600.389,296.041 556.385,254.354C460.25,163.281 356.692,304.554 366.481,388.961C375.271,464.752 448.484,507.44 448.484,507.44" style="fill:none;stroke:black;stroke-width:26.67px;"/>
                    <path d="M587.646,342.261C587.646,342.261 565.135,336.135 534.99,318.719C504.844,301.302 464.913,243.844 406.052,335.403C345.014,430.348 448.484,507.44 448.484,507.44" style="fill:none;stroke:black;stroke-width:26.67px;"/>
                </g>
            </g>
            <g>
                <path d="M926.573,1032.12L955.698,1127.19C989.205,1113.77 1025.06,1114.22 1063.04,1127.19L1063.04,1034.98" style="fill:none;stroke:black;stroke-width:12.67px;"/>
                <path d="M1000,984.911L1006.31,1117.29" style="fill:none;stroke:black;stroke-width:12.67px;"/>
            </g>
        </g>
        <g transform="matrix(4.06025,0,0,4.06025,-1021.94,-446.234)">
            <g transform="matrix(27.6564,0,0,27.6564,334.345,160.899)">
                <path d="M0.624,-0.694L0.587,-0.694L0.587,-0.383L0.121,-0.383L0.121,-0.694L0.084,-0.694L0.084,-0L0.121,-0L0.121,-0.345L0.587,-0.345L0.587,-0L0.624,-0L0.624,-0.694Z" style="fill-rule:nonzero;"/>
            </g>
            <g transform="matrix(27.6564,0,0,27.6564,353.871,160.899)">
                <path d="M0.541,-0.515L0.504,-0.515L0.504,-0.39C0.462,-0.472 0.38,-0.528 0.284,-0.528C0.142,-0.528 0.027,-0.406 0.027,-0.256C0.027,-0.108 0.142,0.012 0.284,0.012C0.38,0.012 0.462,-0.043 0.504,-0.124L0.504,-0L0.541,-0L0.541,-0.515ZM0.504,-0.256C0.504,-0.129 0.405,-0.025 0.284,-0.025C0.163,-0.025 0.064,-0.129 0.064,-0.256C0.064,-0.385 0.163,-0.49 0.284,-0.49C0.405,-0.49 0.504,-0.385 0.504,-0.256Z" style="fill-rule:nonzero;"/>
            </g>
            <g transform="matrix(27.6564,0,0,27.6564,370.797,160.899)">
                <path d="M0.818,-0.332C0.818,-0.445 0.736,-0.528 0.622,-0.528C0.539,-0.528 0.475,-0.483 0.448,-0.414C0.419,-0.483 0.352,-0.528 0.268,-0.528C0.198,-0.528 0.142,-0.496 0.11,-0.445L0.11,-0.515L0.073,-0.515L0.073,-0L0.11,-0L0.11,-0.332C0.11,-0.424 0.177,-0.49 0.268,-0.49C0.36,-0.49 0.427,-0.424 0.427,-0.332L0.427,-0L0.464,-0L0.464,-0.332C0.464,-0.424 0.531,-0.49 0.622,-0.49C0.714,-0.49 0.781,-0.424 0.781,-0.332L0.781,-0L0.818,-0L0.818,-0.332Z" style="fill-rule:nonzero;"/>
            </g>
            <g transform="matrix(27.6564,0,0,27.6564,395.272,160.899)">
                <path d="M0.478,-0.146C0.473,-0.25 0.374,-0.278 0.267,-0.294C0.153,-0.31 0.099,-0.329 0.098,-0.388C0.097,-0.448 0.163,-0.493 0.256,-0.493C0.348,-0.493 0.407,-0.453 0.428,-0.384L0.466,-0.384C0.444,-0.477 0.369,-0.528 0.255,-0.528C0.126,-0.528 0.06,-0.458 0.06,-0.388C0.062,-0.286 0.172,-0.271 0.261,-0.258C0.387,-0.24 0.438,-0.208 0.44,-0.145C0.442,-0.118 0.433,-0.093 0.415,-0.074C0.385,-0.043 0.333,-0.023 0.271,-0.023C0.162,-0.023 0.088,-0.067 0.07,-0.15L0.033,-0.15C0.05,-0.045 0.142,0.012 0.272,0.012C0.344,0.012 0.405,-0.01 0.442,-0.048C0.467,-0.074 0.479,-0.11 0.478,-0.146Z" style="fill-rule:nonzero;"/>
            </g>
            <g transform="matrix(27.6564,0,0,27.6564,409.405,160.899)">
                <path d="M0.479,-0.258L0.442,-0.258L0.442,-0.195C0.442,-0.096 0.371,-0.025 0.272,-0.025C0.174,-0.025 0.102,-0.096 0.102,-0.195L0.102,-0.478L0.461,-0.478L0.461,-0.515L0.102,-0.515L0.102,-0.625L0.065,-0.625L0.065,-0.195C0.065,-0.075 0.152,0.012 0.272,0.012C0.392,0.012 0.479,-0.075 0.479,-0.195L0.479,-0.258Z" style="fill-rule:nonzero;"/>
            </g>
            <g transform="matrix(27.6564,0,0,27.6564,423.842,160.899)">
                <path d="M0.542,-0.258C0.544,-0.388 0.439,-0.528 0.285,-0.528C0.143,-0.528 0.028,-0.406 0.028,-0.256C0.028,-0.106 0.144,0.012 0.291,0.012C0.412,0.012 0.495,-0.049 0.531,-0.16L0.492,-0.16C0.467,-0.092 0.412,-0.025 0.291,-0.025C0.166,-0.025 0.066,-0.124 0.065,-0.258L0.542,-0.258ZM0.069,-0.295C0.086,-0.406 0.176,-0.49 0.285,-0.49C0.393,-0.49 0.484,-0.406 0.502,-0.295L0.069,-0.295Z" style="fill-rule:nonzero;"/>
            </g>
            <g transform="matrix(27.6564,0,0,27.6564,439.55,160.899)">
                <path d="M0.506,-0.308C0.506,-0.437 0.417,-0.528 0.29,-0.528C0.21,-0.528 0.146,-0.488 0.11,-0.427L0.11,-0.515L0.073,-0.515L0.073,-0L0.11,-0L0.11,-0.308C0.11,-0.414 0.186,-0.49 0.29,-0.49C0.397,-0.49 0.469,-0.417 0.469,-0.308L0.469,-0.275L0.506,-0.275L0.506,-0.308Z" style="fill-rule:nonzero;"/>
            </g>
            <g transform="matrix(27.6564,0,0,27.6564,454.153,160.899)">
                <path d="M0.586,-0.192C0.586,-0.28 0.543,-0.34 0.468,-0.366C0.528,-0.392 0.566,-0.447 0.566,-0.52C0.566,-0.628 0.495,-0.694 0.379,-0.694L0.084,-0.694L0.084,-0L0.385,-0C0.504,-0 0.586,-0.079 0.586,-0.192ZM0.121,-0.657L0.379,-0.657C0.474,-0.657 0.529,-0.607 0.529,-0.52C0.529,-0.425 0.455,-0.382 0.382,-0.382L0.121,-0.382L0.121,-0.657ZM0.549,-0.192C0.549,-0.085 0.467,-0.037 0.385,-0.037L0.121,-0.037L0.121,-0.346L0.382,-0.346C0.488,-0.346 0.549,-0.289 0.549,-0.192Z" style="fill-rule:nonzero;"/>
            </g>
            <g transform="matrix(27.6564,0,0,27.6564,471.466,160.899)">
                <path d="M0.285,-0.528C0.144,-0.528 0.028,-0.406 0.028,-0.256C0.028,-0.108 0.144,0.012 0.285,0.012C0.427,0.012 0.543,-0.108 0.543,-0.256C0.543,-0.406 0.427,-0.528 0.285,-0.528ZM0.285,-0.023C0.164,-0.023 0.065,-0.128 0.065,-0.256C0.065,-0.387 0.164,-0.493 0.285,-0.493C0.407,-0.493 0.505,-0.387 0.505,-0.256C0.505,-0.128 0.407,-0.023 0.285,-0.023Z" style="fill-rule:nonzero;"/>
            </g>
            <g transform="matrix(27.6564,0,0,27.6564,487.202,160.899)">
                <path d="M0.285,-0.528C0.144,-0.528 0.028,-0.406 0.028,-0.256C0.028,-0.108 0.144,0.012 0.285,0.012C0.427,0.012 0.543,-0.108 0.543,-0.256C0.543,-0.406 0.427,-0.528 0.285,-0.528ZM0.285,-0.023C0.164,-0.023 0.065,-0.128 0.065,-0.256C0.065,-0.387 0.164,-0.493 0.285,-0.493C0.407,-0.493 0.505,-0.387 0.505,-0.256C0.505,-0.128 0.407,-0.023 0.285,-0.023Z" style="fill-rule:nonzero;"/>
            </g>
            <g transform="matrix(27.6564,0,0,27.6564,502.939,160.899)">
                <path d="M0.243,-0.3L0.445,-0L0.49,-0L0.27,-0.327L0.465,-0.515L0.412,-0.515L0.11,-0.223L0.11,-0.744L0.073,-0.744L0.073,-0L0.11,-0L0.11,-0.172L0.243,-0.3Z" style="fill-rule:nonzero;"/>
            </g>
        </g>
    </g>
</svg>
